<?xml version="1.0" encoding="utf-8"?>
<!-- Generator: Adobe Illustrator 25.2.1, SVG Export Plug-In . SVG Version: 6.00 Build 0)  -->
<svg version="1.1" id="圖層_1" xmlns="http://www.w3.org/2000/svg" xmlns:xlink="http://www.w3.org/1999/xlink" x="0px" y="0px"
	 viewBox="0 0 22 22" style="enable-background:new 0 0 22 22;" xml:space="preserve">
<style type="text/css">
	.st0{opacity:0.6;}
	.st1{fill:#FFFFFF;}
	.st2{fill:#30D3EC;}
</style>
<g>
	<g id="Group_283" transform="translate(2.287 8.13)" class="st0">
		<path id="Path_134" class="st1" d="M14,13.1H3.4c-1.7,0-3.2-1.4-3.2-3.2V1.2c0-0.5,0.4-0.8,0.8-0.8l0,0c0.5,0,0.8,0.4,0.8,0.8l0,0
			v8.7c0,0.8,0.7,1.5,1.5,1.5H14c0.8,0,1.5-0.7,1.5-1.5V1.2c0-0.5,0.4-0.8,0.8-0.8l0,0c0.5,0,0.8,0.4,0.8,0.8l0,0v8.7
			C17.2,11.6,15.8,13.1,14,13.1z"/>
	</g>
	<g id="Group_284" class="st0">
		<path id="Path_135" class="st1" d="M1.2,11.9c-0.2,0-0.4-0.1-0.6-0.2c-0.3-0.3-0.3-0.9,0-1.2l0,0l8.7-9c0,0,0,0,0.1-0.1
			c0.9-0.7,2.1-0.7,3,0c0,0,0.1,0,0.1,0.1l8.9,9c0.3,0.3,0.3,0.9,0,1.2l0,0c-0.3,0.3-0.9,0.3-1.2,0l0,0l-8.9-9
			c-0.3-0.2-0.6-0.2-0.9,0l-8.7,9C1.7,11.8,1.4,11.9,1.2,11.9z"/>
	</g>
	<g id="Group_285" transform="translate(6.496 9.903)">
		<path id="Path_136" class="st2" d="M8.1,9C7.6,9,7.2,8.6,7.2,8.2l0,0V4.7C7.2,3.2,6,2,4.5,2l0,0C3,1.9,1.8,3.2,1.8,4.7l0,0v3.5
			C1.8,8.6,1.4,9,0.9,9l0,0C0.5,9,0.1,8.6,0.1,8.2l0,0V4.7c0-2.4,2-4.4,4.4-4.4s4.4,2,4.4,4.4v3.5C8.9,8.6,8.5,9,8.1,9z"/>
	</g>
</g>
</svg>
